<?xml version="1.0" encoding="utf-8"?>
<!-- Generator: Adobe Illustrator 27.5.0, SVG Export Plug-In . SVG Version: 6.00 Build 0)  -->
<svg version="1.1" xmlns="http://www.w3.org/2000/svg" xmlns:xlink="http://www.w3.org/1999/xlink" x="0px" y="0px"
	 viewBox="0 0 500 500" style="enable-background:new 0 0 500 500;" xml:space="preserve">
<g id="Background_Simple">
	<g>
		<path style="fill:#92E3A9;" d="M183.511,78.444c-7,0.075-13.984,0.327-20.908,1.118C82.689,88.685-1.81,176.901,35.439,259.573
			c8.878,19.704,24.831,32.903,37.891,49.654c29.704,38.099,35.644,84.876,60.865,124.793c19.552,30.942,56.562,46.326,91.542,51.66
			c38.011,5.797,69.993-1.193,101.869-21.868c35.735-23.179,47.585-60.955,58.241-99.782c4.792-17.462,9.766-35.449,18.968-51.185
			c11.52-19.701,27.346-36.961,40.19-55.811c13.358-19.604,24.828-41.12,28.327-64.618c11.206-75.25-78.705-138.659-147.717-139.428
			c-24.428-0.272-47.577,8.255-70.384,15.526C230.612,76.364,209.412,78.167,183.511,78.444z"/>
		<path style="opacity:0.7;fill:#FFFFFF;" d="M183.511,78.444c-7,0.075-13.984,0.327-20.908,1.118
			C82.689,88.685-1.81,176.901,35.439,259.573c8.878,19.704,24.831,32.903,37.891,49.654
			c29.704,38.099,35.644,84.876,60.865,124.793c19.552,30.942,56.562,46.326,91.542,51.66c38.011,5.797,69.993-1.193,101.869-21.868
			c35.735-23.179,47.585-60.955,58.241-99.782c4.792-17.462,9.766-35.449,18.968-51.185c11.52-19.701,27.346-36.961,40.19-55.811
			c13.358-19.604,24.828-41.12,28.327-64.618c11.206-75.25-78.705-138.659-147.717-139.428
			c-24.428-0.272-47.577,8.255-70.384,15.526C230.612,76.364,209.412,78.167,183.511,78.444z"/>
	</g>
</g>
<g id="Grid">
	<g style="opacity:0.3;">
		<g>
			<line style="fill:none;stroke:#000000;stroke-miterlimit:10;" x1="33.513" y1="53.849" x2="33.513" y2="471.782"/>
			<line style="fill:none;stroke:#000000;stroke-miterlimit:10;" x1="81.424" y1="53.849" x2="81.424" y2="471.782"/>
			<line style="fill:none;stroke:#000000;stroke-miterlimit:10;" x1="129.336" y1="53.849" x2="129.336" y2="471.782"/>
			<line style="fill:none;stroke:#000000;stroke-miterlimit:10;" x1="177.247" y1="53.849" x2="177.247" y2="471.782"/>
			<line style="fill:none;stroke:#000000;stroke-miterlimit:10;" x1="225.158" y1="53.849" x2="225.158" y2="471.782"/>
			<line style="fill:none;stroke:#000000;stroke-miterlimit:10;" x1="273.069" y1="53.849" x2="273.069" y2="471.782"/>
			<line style="fill:none;stroke:#000000;stroke-miterlimit:10;" x1="320.98" y1="53.849" x2="320.98" y2="471.782"/>
			<line style="fill:none;stroke:#000000;stroke-miterlimit:10;" x1="368.891" y1="53.849" x2="368.891" y2="471.782"/>
			<line style="fill:none;stroke:#000000;stroke-miterlimit:10;" x1="416.802" y1="53.849" x2="416.802" y2="471.782"/>
			<line style="fill:none;stroke:#000000;stroke-miterlimit:10;" x1="464.714" y1="53.849" x2="464.714" y2="471.782"/>
		</g>
		<g>
			<line style="fill:none;stroke:#000000;stroke-miterlimit:10;" x1="486.089" y1="95.127" x2="12.138" y2="95.127"/>
			<line style="fill:none;stroke:#000000;stroke-miterlimit:10;" x1="486.089" y1="143.038" x2="12.138" y2="143.038"/>
			<line style="fill:none;stroke:#000000;stroke-miterlimit:10;" x1="486.089" y1="190.949" x2="12.138" y2="190.949"/>
			<line style="fill:none;stroke:#000000;stroke-miterlimit:10;" x1="486.089" y1="238.86" x2="12.138" y2="238.86"/>
			<line style="fill:none;stroke:#000000;stroke-miterlimit:10;" x1="486.089" y1="286.771" x2="12.138" y2="286.771"/>
			<line style="fill:none;stroke:#000000;stroke-miterlimit:10;" x1="486.089" y1="334.682" x2="12.138" y2="334.682"/>
			<line style="fill:none;stroke:#000000;stroke-miterlimit:10;" x1="486.089" y1="382.593" x2="12.138" y2="382.593"/>
			<line style="fill:none;stroke:#000000;stroke-miterlimit:10;" x1="486.089" y1="430.504" x2="12.138" y2="430.504"/>
		</g>
	</g>
</g>
<g id="Arrows_2">
	<path style="opacity:0.15;" d="M223.977,81.277l-3.209-37.873c-0.198-2.34-1.445-4.464-3.391-5.778
		c-1.946-1.314-4.383-1.677-6.627-0.986l-37.552,11.554c-4.098,1.261-6.398,5.605-5.137,9.703c1.261,4.098,5.604,6.398,9.703,5.137
		l16.131-4.964l-60.381,79.85l-38.357-1.162c-2.328-0.064-4.56,0.906-6.088,2.66l-47.822,54.883
		c-2.817,3.233-2.479,8.136,0.753,10.953c1.471,1.282,3.287,1.91,5.097,1.91c2.166,0,4.321-0.902,5.856-2.663l45.408-52.112
		l38.692,1.173c2.507,0.065,4.91-1.071,6.427-3.078l63.648-84.17l1.379,16.273c0.343,4.049,3.736,7.108,7.727,7.108
		c0.22,0,0.441-0.009,0.664-0.028C221.169,89.306,224.339,85.549,223.977,81.277z"/>
	<path style="opacity:0.15;" d="M426.303,334.456l-3.598-42.457c-0.153-1.807-0.762-3.575-1.897-4.989
		c-2.337-2.912-6.109-3.982-9.495-2.94l-42.332,13.025c-4.486,1.38-7.361,5.971-6.273,10.536c1.192,5.003,6.329,7.884,11.167,6.396
		l18.309-5.633l-50.336,66.48c-2.853,3.768-2.225,9.116,1.423,12.121l0,0c3.866,3.183,9.604,2.509,12.626-1.483l51.305-67.761
		l1.565,18.47c0.39,4.596,4.24,8.068,8.77,8.068c0.894,0,1.812-0.135,2.731-0.429C424.223,342.59,426.654,338.595,426.303,334.456z"
		/>
	<path style="opacity:0.15;" d="M261.249,413.432l-3.598-42.459c-0.153-1.807-0.762-3.574-1.898-4.989
		c-2.338-2.911-6.109-3.981-9.495-2.939l-42.332,13.025c-4.486,1.38-7.361,5.971-6.273,10.536c1.192,5.003,6.329,7.884,11.167,6.396
		l18.309-5.634l-51.401,67.974c-2.849,3.768-2.22,9.113,1.427,12.116l0,0c3.867,3.185,9.608,2.509,12.63-1.487l52.363-69.246
		l1.565,18.47c0.39,4.596,4.24,8.068,8.77,8.068c0.894,0,1.812-0.135,2.731-0.429C259.169,421.567,261.6,417.572,261.249,413.432z"
		/>
	<path style="opacity:0.15;" d="M324.628,47.956l-1.988-23.454c-0.085-0.999-0.421-1.975-1.048-2.756
		c-1.291-1.608-3.374-2.199-5.245-1.623l-23.384,7.195c-2.478,0.763-4.066,3.298-3.465,5.82c0.658,2.763,3.496,4.355,6.169,3.533
		l10.114-3.112l-28.393,37.548c-1.574,2.082-1.226,5.034,0.788,6.693l0,0c2.136,1.759,5.307,1.386,6.977-0.822l28.925-38.251
		l0.865,10.203c0.215,2.539,2.342,4.457,4.844,4.457c0.494,0,1.001-0.074,1.508-0.237C323.479,52.449,324.821,50.242,324.628,47.956
		z"/>
</g>
<g id="Arrow_1">
	<g>
		<path style="fill:#263238;stroke:#263238;stroke-linecap:round;stroke-linejoin:round;stroke-miterlimit:10;" d="M457.213,170.225
			l-7.441-87.812c-0.46-5.425-3.351-10.351-7.863-13.398c-4.513-3.047-10.162-3.888-15.366-2.286l-87.067,26.79
			c-9.501,2.924-14.834,12.996-11.91,22.497c2.923,9.502,12.993,14.834,22.498,11.911l37.402-11.508L247.464,301.561l-88.936-2.695
			c-5.398-0.148-10.572,2.101-14.116,6.167L33.531,432.285c-6.531,7.495-5.749,18.865,1.746,25.396
			c3.411,2.972,7.623,4.429,11.817,4.429c5.022,0,10.02-2.091,13.578-6.175l105.283-120.828l89.712,2.719
			c5.813,0.151,11.384-2.483,14.902-7.136l147.575-195.157l3.197,37.731c0.796,9.389,8.662,16.481,17.915,16.481
			c0.51,0,1.023-0.021,1.54-0.065C450.703,188.842,458.053,180.131,457.213,170.225z"/>
		<path style="fill:#92E3A9;stroke:#263238;stroke-linecap:round;stroke-linejoin:round;stroke-miterlimit:10;" d="M464.854,162.915
			l-7.441-87.812c-0.46-5.425-3.351-10.351-7.863-13.398c-4.513-3.047-10.162-3.888-15.366-2.286l-87.067,26.79
			c-9.501,2.924-14.834,12.996-11.91,22.497c2.923,9.502,12.993,14.834,22.498,11.911l37.402-11.508L255.104,294.251l-88.936-2.695
			c-5.398-0.148-10.572,2.101-14.116,6.167L41.172,424.976c-6.531,7.495-5.749,18.865,1.746,25.397
			c3.411,2.972,7.623,4.429,11.817,4.429c5.022,0,10.02-2.091,13.578-6.175l105.283-120.828l89.712,2.719
			c5.814,0.151,11.384-2.483,14.902-7.136l147.575-195.157l3.197,37.731c0.796,9.389,8.662,16.481,17.915,16.481
			c0.51,0,1.023-0.021,1.54-0.065C458.344,181.532,465.694,172.821,464.854,162.915z"/>
	</g>
</g>
<g id="Character">
	<g>
		<path style="fill:#263238;stroke:#263238;stroke-linecap:round;stroke-linejoin:round;stroke-miterlimit:10;" d="M227.678,245.081
			l-16.652-0.968l-6.802-2.13c0,0-15.989-18.699-29.81-28.726c-13.821-10.027-41.192-28.455-43.631-24.932
			c-2.439,3.523,2.981,87.804,2.981,87.804s-5.149,2.71-5.962,4.336s-27.1,62.601-27.1,62.601s-4.607-1.355-5.42,0.271
			c-0.813,1.626-3.794,8.943-3.794,8.943l-13.821-1.355c0,0-9.756-2.439-15.176-4.336c-5.42-1.897-4.065,2.439-2.71,4.336
			c1.355,1.897,18.157,17.073,18.157,17.073l10.569,7.588c0,0,4.336,1.084,5.42-0.813s11.924-14.363,11.924-14.363
			s2.981-2.168,4.336-3.523c1.355-1.355,3.252-6.504,3.252-6.504l28.184-34.688l15.176-17.073h85.907c0,0,4.878-2.168,7.046-7.859
			c2.168-5.691,2.168-5.691,2.168-5.691L227.678,245.081z M150.024,272.336l4.878-36.314l23.848,29.81L150.024,272.336z"/>
		<g>
			<path style="fill:#FFFFFF;stroke:#263238;stroke-linecap:round;stroke-linejoin:round;stroke-miterlimit:10;" d="
				M332.313,165.437l-18.841,9.531l-4.877,10.418l23.275-0.222c0,0,5.763-12.413,5.985-16.181
				C338.077,165.216,332.313,165.437,332.313,165.437z"/>
			<path style="fill:#FFFFFF;stroke:#263238;stroke-linecap:round;stroke-linejoin:round;stroke-miterlimit:10;" d="
				M325.904,176.944c0,0-1.084-7.588,0-8.672c1.084-1.084,14.363-9.214,17.073-9.214c2.71,0,9.756,2.168,10.027,2.981
				s0.813,3.523,0.813,4.607s-8.13,7.588-9.214,8.943C343.519,176.944,325.904,176.944,325.904,176.944z"/>
		</g>
		<path style="fill:#FFFFFF;stroke:#263238;stroke-linecap:round;stroke-linejoin:round;stroke-miterlimit:10;" d="M300.638,196.3
			l10.242-0.387c0,0,13.721-18.552,16.62-21.838c2.899-3.285,10.822-10.242,19.519-11.402c8.696-1.159,9.856,3.092,9.856,4.638
			c0,1.546-8.503,16.62-12.368,24.736c-3.865,8.117-7.73,12.948-8.696,14.881c-0.966,1.932-11.209,19.905-13.141,23.19
			c-1.933,3.285-13.141,11.595-14.687,13.528c-1.546,1.932-13.721,20.678-21.258,26.669c-7.537,5.991-20.485,11.788-20.485,11.788
			s-5.991,4.252-9.469,5.991c-3.479,1.739-7.344,1.353-8.696,0.773s-11.982-9.469-17.779-18.939
			c-5.798-9.469-5.798-23.577-5.411-24.93c0.387-1.353,3.672-3.479,4.638-3.672c0.966-0.193,10.822-2.706,10.822-2.706l7.923-5.798
			c0,0,0.58-3.092,1.353-4.058c0.773-0.966,16.62-18.359,16.62-18.359l5.991-6.957l14.107-3.672L300.638,196.3z"/>
		<g>
			<g>
				<path style="fill:none;stroke:#263238;stroke-linecap:round;stroke-linejoin:round;stroke-miterlimit:10;" d="M257.63,254.939
					c4.484,0.037,10.114-0.362,17.055-1.573"/>
				<path style="fill:none;stroke:#263238;stroke-linecap:round;stroke-linejoin:round;stroke-miterlimit:10;" d="M242.855,252.343
					c0,0,3.456,2.063,11.983,2.512"/>
				<path style="fill:none;stroke:#263238;stroke-linecap:round;stroke-linejoin:round;stroke-miterlimit:10;" d="M254.702,262.315
					c1.063,0.248,2.13,0.435,3.181,0.536"/>
				<path style="fill:none;stroke:#263238;stroke-linecap:round;stroke-linejoin:round;stroke-miterlimit:10;" d="M239.996,255.805
					c0,0,5.719,3.758,12.209,5.819"/>
				<path style="fill:none;stroke:#263238;stroke-linecap:round;stroke-linejoin:round;stroke-miterlimit:10;" d="M277.915,239.191
					c-6.096,1.595-17.943,4.671-23.827,6.044"/>
				<path style="fill:none;stroke:#263238;stroke-linecap:round;stroke-linejoin:round;stroke-miterlimit:10;" d="M281.731,238.19
					c0,0-0.642,0.17-1.742,0.458"/>
			</g>
			<path style="fill:none;stroke:#263238;stroke-linecap:round;stroke-linejoin:round;stroke-miterlimit:10;" d="M297.896,215.218
				c-0.671,1.046-1.252,1.974-1.704,2.726"/>
			<path style="fill:none;stroke:#263238;stroke-linecap:round;stroke-linejoin:round;stroke-miterlimit:10;" d="M310.88,195.913
				c0,0-7.043,10.2-11.695,17.317"/>
			<path style="fill:none;stroke:#263238;stroke-linecap:round;stroke-linejoin:round;stroke-miterlimit:10;" d="M308.948,197.459
				c0,0-10.629,7.15-15.074,11.982"/>
		</g>
		<g>
			<path style="fill:#FFFFFF;stroke:#263238;stroke-linecap:round;stroke-linejoin:round;stroke-miterlimit:10;" d="
				M286.144,154.364c0,0-10.629,5.991-10.629,7.344s0,2.899,0,2.899s-6.377,4.445-8.696,5.798c-2.319,1.353,2.126,4.831,2.126,4.831
				l-5.991,14.494c0,0,1.739,3.092,3.092,3.285c1.353,0.193,8.503,0.386,8.503,0.386l2.512,6.764l25.123-5.218l-1.159-4.058
				c0,0,10.049-4.252,14.107-7.15c4.058-2.899,6.571-14.494,3.285-21.644c-3.285-7.15-6.377-11.016-9.663-12.755
				c-3.285-1.739-11.015-1.739-11.015-1.739s5.604-5.798,0.193-5.991c-5.411-0.193-7.73,4.252-7.73,4.252s-3.479-5.218-6.377-1.353
				C280.926,148.373,286.144,154.364,286.144,154.364z"/>
			<polygon style="fill:#263238;stroke:#263238;stroke-linecap:round;stroke-linejoin:round;stroke-miterlimit:10;" points="
				274.548,193.401 280.351,193.292 276.64,197.876 			"/>
			<path style="fill:none;stroke:#263238;stroke-linecap:round;stroke-linejoin:round;stroke-miterlimit:10;" d="M278.993,163.447
				c0,0,4.058-1.353,5.411,3.092"/>
			<path style="fill:none;stroke:#263238;stroke-linecap:round;stroke-linejoin:round;stroke-miterlimit:10;" d="M279.766,166.732
				l-2.512,2.319c0,0,0.58,0.773,3.672,1.739"/>
			<path style="fill:none;stroke:#263238;stroke-linecap:round;stroke-linejoin:round;stroke-miterlimit:10;" d="M271.65,178.134
				c0,0,1.546,2.126,6.957,0"/>
		</g>
		<path style="fill:#263238;stroke:#263238;stroke-linecap:round;stroke-linejoin:round;stroke-miterlimit:10;" d="M308.754,149.339
			c-3.285-1.739-11.015-1.739-11.015-1.739s5.604-5.798,0.193-5.991c-5.411-0.193-7.73,4.252-7.73,4.252s-3.479-5.218-6.377-1.353
			c-2.899,3.865,2.319,9.856,2.319,9.856s1.739,0.966,4.058,1.739c2.319,0.773,6.764,1.353,7.344,2.512
			c0.58,1.16-7.73,4.252-6.957,5.991c0.773,1.739,2.512,6.764,2.512,6.764s-3.479,4.252-2.899,4.831
			c0.58,0.58,2.126,2.319,2.706,2.319c0.58,0,5.025-2.899,5.604-2.899c0.58,0,3.478,0.193,3.092,4.445
			c-0.386,4.252-5.411,6.184-7.73,6.571c-2.319,0.387-2.319,0.387-2.319,0.387s2.512,2.126,3.285,3.285
			c0.773,1.16,6.184,0.58,6.184,0.58s10.049-4.252,14.107-7.15c4.058-2.899,6.571-14.494,3.285-21.644
			C315.132,154.943,312.04,151.078,308.754,149.339z"/>
		<g>
			<path style="fill:#92E3A9;stroke:#263238;stroke-linecap:round;stroke-linejoin:round;stroke-miterlimit:10;" d="
				M268.171,216.398c0,0-4.445,30.148-4.831,34.013c-0.387,3.865-0.387,23.384-0.387,23.384l7.73,7.537l6.957-8.89l-5.411-26.669
				l-2.706-29.954L268.171,216.398z"/>
			<polygon style="fill:#92E3A9;stroke:#263238;stroke-linecap:round;stroke-linejoin:round;stroke-miterlimit:10;" points="
				270.49,206.542 268.171,216.398 283.825,206.349 			"/>
		</g>
		<polygon style="fill:#FFFFFF;stroke:#263238;stroke-linecap:round;stroke-linejoin:round;stroke-miterlimit:10;" points="
			301.024,190.889 271.843,199.585 272.809,211.373 304.503,196.106 		"/>
		<g>
			<polygon style="fill:#FFFFFF;stroke:#263238;stroke-linecap:round;stroke-linejoin:round;stroke-miterlimit:10;" points="
				272.229,202.097 265.852,201.711 273.196,209.248 			"/>
			<polygon style="fill:#FFFFFF;stroke:#263238;stroke-linecap:round;stroke-linejoin:round;stroke-miterlimit:10;" points="
				265.852,201.711 266.239,210.407 270.49,206.542 			"/>
		</g>
		<path style="fill:none;stroke:#FFFFFF;stroke-linecap:round;stroke-linejoin:round;stroke-miterlimit:10;" d="M153.276,233.041
			c0,0-10.027-17.886-14.634-25.745"/>
		
			<line style="fill:none;stroke:#FFFFFF;stroke-linecap:round;stroke-linejoin:round;stroke-miterlimit:10;" x1="135.932" y1="211.632" x2="142.978" y2="217.594"/>
		<g>
			<path style="fill:none;stroke:#FFFFFF;stroke-linecap:round;stroke-linejoin:round;stroke-miterlimit:10;" d="M111.542,326.265
				c0,0,23.577-14.092,38.211-23.035"/>
			<path style="fill:none;stroke:#FFFFFF;stroke-linecap:round;stroke-linejoin:round;stroke-miterlimit:10;" d="M133.222,308.108
				c0,0,13.008-5.962,16.26-8.943"/>
		</g>
	</g>
</g>
<g id="Device">
	<g>
		<polygon style="fill:#FFFFFF;stroke:#263238;stroke-linecap:round;stroke-linejoin:round;stroke-miterlimit:10;" points="
			188.357,203.643 163.621,214.272 192.416,256.788 208.262,238.042 		"/>
		<polygon style="fill:#92E3A9;stroke:#263238;stroke-linecap:round;stroke-linejoin:round;stroke-miterlimit:10;" points="
			188.164,205.769 166.18,214.968 192.671,254.083 206.477,237.416 		"/>
		<polygon style="fill:#FFFFFF;stroke:#263238;stroke-linecap:round;stroke-linejoin:round;stroke-miterlimit:10;" points="
			208.262,238.042 247.106,231.665 242.855,252.343 192.416,256.788 		"/>
		<g>
			
				<polygon style="fill:none;stroke:#263238;stroke-width:0.75;stroke-linecap:round;stroke-linejoin:round;stroke-miterlimit:10;" points="
				230.177,238.474 230.919,236.512 227.086,237.123 226.245,239.059 			"/>
			
				<polygon style="fill:#FFFFFF;stroke:#263238;stroke-width:0.75;stroke-linecap:round;stroke-linejoin:round;stroke-miterlimit:10;" points="
				206.238,250.26 210.282,249.789 211.495,247.928 207.7,248.383 			"/>
			
				<polygon style="fill:none;stroke:#263238;stroke-width:0.75;stroke-linecap:round;stroke-linejoin:round;stroke-miterlimit:10;" points="
				230.833,239.287 230.023,241.431 233.48,240.943 234.285,238.773 			"/>
			
				<polygon style="fill:none;stroke:#263238;stroke-width:0.75;stroke-linecap:round;stroke-linejoin:round;stroke-miterlimit:10;" points="
				233.151,244.426 237.593,243.893 238.56,241.136 234.139,241.761 			"/>
			
				<polygon style="fill:#FFFFFF;stroke:#263238;stroke-width:0.75;stroke-linecap:round;stroke-linejoin:round;stroke-miterlimit:10;" points="
				218.394,243.984 214.812,244.489 213.304,246.804 217.16,246.342 			"/>
			
				<polygon style="fill:#FFFFFF;stroke:#263238;stroke-width:0.75;stroke-linecap:round;stroke-linejoin:round;stroke-miterlimit:10;" points="
				220.526,239.91 221.522,238.009 218.747,238.451 217.502,240.361 			"/>
			
				<polygon style="fill:#FFFFFF;stroke:#263238;stroke-width:0.75;stroke-linecap:round;stroke-linejoin:round;stroke-miterlimit:10;" points="
				216.653,247.31 212.662,247.788 211.447,249.654 215.684,249.161 			"/>
			
				<polygon style="fill:#FFFFFF;stroke:#263238;stroke-width:0.75;stroke-linecap:round;stroke-linejoin:round;stroke-miterlimit:10;" points="
				213.627,244.657 210.229,245.136 208.48,247.382 212.136,246.944 			"/>
			
				<polygon style="fill:none;stroke:#263238;stroke-width:0.75;stroke-linecap:round;stroke-linejoin:round;stroke-miterlimit:10;" points="
				234.642,237.81 235.386,235.801 231.945,236.349 231.199,238.322 			"/>
			
				<polygon style="fill:#FFFFFF;stroke:#263238;stroke-width:0.75;stroke-linecap:round;stroke-linejoin:round;stroke-miterlimit:10;" points="
				199.904,251.904 198.02,254.082 202.514,253.573 204.203,251.404 			"/>
			
				<polygon style="fill:#FFFFFF;stroke:#263238;stroke-width:0.75;stroke-linecap:round;stroke-linejoin:round;stroke-miterlimit:10;" points="
				221.768,249.362 220.842,251.494 225.45,250.972 226.257,248.84 			"/>
			
				<polygon style="fill:#FFFFFF;stroke:#263238;stroke-width:0.75;stroke-linecap:round;stroke-linejoin:round;stroke-miterlimit:10;" points="
				210.806,250.637 209.402,252.792 214.06,252.264 215.178,250.128 			"/>
			
				<polygon style="fill:none;stroke:#263238;stroke-width:0.75;stroke-linecap:round;stroke-linejoin:round;stroke-miterlimit:10;" points="
				226.457,250.858 229.953,250.461 230.747,248.318 227.265,248.723 			"/>
			
				<polygon style="fill:none;stroke:#263238;stroke-width:0.75;stroke-linecap:round;stroke-linejoin:round;stroke-miterlimit:10;" points="
				234.495,240.8 238.896,240.178 239.669,237.972 235.302,238.622 			"/>
			
				<polygon style="fill:#FFFFFF;stroke:#263238;stroke-width:0.75;stroke-linecap:round;stroke-linejoin:round;stroke-miterlimit:10;" points="
				223.853,242.302 224.771,240.189 221.113,240.734 220.007,242.845 			"/>
			
				<polygon style="fill:#FFFFFF;stroke:#263238;stroke-width:0.75;stroke-linecap:round;stroke-linejoin:round;stroke-miterlimit:10;" points="
				211.389,242.181 207.859,242.707 206.032,244.818 209.742,244.295 			"/>
			
				<polygon style="fill:#FFFFFF;stroke:#263238;stroke-width:0.75;stroke-linecap:round;stroke-linejoin:round;stroke-miterlimit:10;" points="
				225.194,239.216 226.03,237.291 222.632,237.832 221.63,239.746 			"/>
			
				<polygon style="fill:#FFFFFF;stroke:#263238;stroke-width:0.75;stroke-linecap:round;stroke-linejoin:round;stroke-miterlimit:10;" points="
				211.026,244.113 214.28,243.654 215.653,241.546 212.682,241.989 			"/>
			
				<polygon style="fill:none;stroke:#263238;stroke-width:0.75;stroke-linecap:round;stroke-linejoin:round;stroke-miterlimit:10;" points="
				231.793,245.496 228.328,245.911 227.624,247.773 231.099,247.368 			"/>
			
				<polygon style="fill:none;stroke:#263238;stroke-width:0.75;stroke-linecap:round;stroke-linejoin:round;stroke-miterlimit:10;" points="
				237.261,244.84 232.799,245.375 232.104,247.252 236.599,246.729 			"/>
			
				<polygon style="fill:none;stroke:#263238;stroke-width:0.75;stroke-linecap:round;stroke-linejoin:round;stroke-miterlimit:10;" points="
				233.124,241.904 229.659,242.393 228.688,244.96 232.145,244.546 			"/>
			
				<polygon style="fill:#FFFFFF;stroke:#263238;stroke-width:0.75;stroke-linecap:round;stroke-linejoin:round;stroke-miterlimit:10;" points="
				215.465,243.487 218.909,243 220.009,240.898 216.845,241.369 			"/>
			
				<polygon style="fill:#FFFFFF;stroke:#263238;stroke-width:0.75;stroke-linecap:round;stroke-linejoin:round;stroke-miterlimit:10;" points="
				205.46,251.258 203.768,253.431 208.24,252.923 209.642,250.772 			"/>
			
				<polygon style="fill:none;stroke:#263238;stroke-width:0.75;stroke-linecap:round;stroke-linejoin:round;stroke-miterlimit:10;" points="
				235.659,237.658 240.007,237.011 240.729,234.95 236.408,235.638 			"/>
			
				<polygon style="fill:none;stroke:#263238;stroke-width:0.75;stroke-linecap:round;stroke-linejoin:round;stroke-miterlimit:10;" points="
				231.752,248.201 230.957,250.347 235.511,249.831 236.267,247.676 			"/>
			
				<polygon style="fill:#FFFFFF;stroke:#263238;stroke-width:0.75;stroke-linecap:round;stroke-linejoin:round;stroke-miterlimit:10;" points="
				212.191,241.151 213.664,239.26 210.388,239.782 208.763,241.661 			"/>
			
				<polygon style="fill:#FFFFFF;stroke:#263238;stroke-width:0.75;stroke-linecap:round;stroke-linejoin:round;stroke-miterlimit:10;" points="
				216.261,250.002 215.141,252.141 219.809,251.612 220.734,249.482 			"/>
			
				<polygon style="fill:#FFFFFF;stroke:#263238;stroke-width:0.75;stroke-linecap:round;stroke-linejoin:round;stroke-miterlimit:10;" points="
				223.432,243.272 219.493,243.829 218.245,246.212 222.369,245.718 			"/>
			
				<polygon style="fill:none;stroke:#263238;stroke-width:0.75;stroke-linecap:round;stroke-linejoin:round;stroke-miterlimit:10;" points="
				227.319,246.032 222.99,246.551 222.184,248.405 226.616,247.89 			"/>
			
				<polygon style="fill:#FFFFFF;stroke:#263238;stroke-width:0.75;stroke-linecap:round;stroke-linejoin:round;stroke-miterlimit:10;" points="
				206.44,248.534 202.4,249.018 200.777,250.895 204.982,250.406 			"/>
			
				<polygon style="fill:none;stroke:#263238;stroke-width:0.75;stroke-linecap:round;stroke-linejoin:round;stroke-miterlimit:10;" points="
				228.641,242.537 224.479,243.125 223.406,245.593 227.678,245.081 			"/>
			
				<polygon style="fill:#FFFFFF;stroke:#263238;stroke-width:0.75;stroke-linecap:round;stroke-linejoin:round;stroke-miterlimit:10;" points="
				221.953,246.675 217.738,247.18 216.767,249.035 221.149,248.526 			"/>
			
				<polygon style="fill:none;stroke:#263238;stroke-width:0.75;stroke-linecap:round;stroke-linejoin:round;stroke-miterlimit:10;" points="
				229.812,239.439 225.822,240.033 224.9,242.155 229.004,241.575 			"/>
			
				<polygon style="fill:#FFFFFF;stroke:#263238;stroke-width:0.75;stroke-linecap:round;stroke-linejoin:round;stroke-miterlimit:10;" points="
				208.945,245.318 205.135,245.856 203.275,248.006 207.219,247.533 			"/>
			
				<polygon style="fill:#FFFFFF;stroke:#263238;stroke-width:0.75;stroke-linecap:round;stroke-linejoin:round;stroke-miterlimit:10;" points="
				216.311,240.538 217.546,238.642 214.969,239.052 213.484,240.959 			"/>
		</g>
	</g>
</g>
</svg>
